# xmcd
#
# Track frame offsets: 
#        150
#        12275
#        23834
#        33883
#        46223
#        59184
#        70005
#        80654
#        91116
#        101184
#        113697
#        125783
#        136878
#        147336
#        158286
#        168913
#        179884
#        189992
#        200982
#
# Disc length: 2823 seconds
#
# Revision: 0
# Processed by: cddbd v1.5.2PL0 Copyright (c) Steve Scherf et al.
# Submitted via: ExactAudioCopyFreeDBPlugin 1.0
#
DISCID=0b0b0513
DTITLE=Smiley Lewis - I Hear You Knocking 1947-1962  [CD1]
DYEAR=2016
DGENRE=R&B
TTITLE0=Turn On Your Volume, Baby
TTITLE1=Here Comes Smiley
TTITLE2=Tee-Nah-Nah
TTITLE3=Lowdown
TTITLE4=Slide Me Down
TTITLE5=Growing Old
TTITLE6=If You Ever Loved A Woman
TTITLE7=Dirty People
TTITLE8=Ain't Goin' There No More
TTITLE9=Bee's Boogie
TTITLE10=My Baby Was Right
TTITLE11=Where Were You
TTITLE12=My Baby
TTITLE13=Sad Life
TTITLE14=Don't Jive Me
TTITLE15=The Bells Are Ringing
TTITLE16=Lillie Mae
TTITLE17=Gumbo Blues
TTITLE18=It's So Peaceful
EXTD=
EXTT0=
EXTT1=
EXTT2=
EXTT3=
EXTT4=
EXTT5=
EXTT6=
EXTT7=
EXTT8=
EXTT9=
EXTT10=
EXTT11=
EXTT12=
EXTT13=
EXTT14=
EXTT15=
EXTT16=
EXTT17=
EXTT18=
PLAYORDER=
